<svg xmlns="http://www.w3.org/2000/svg" viewBox="0 0 256 256">
  <rect width="256" height="256" fill="#faf9f4"/>
  <path d="M14 18H236l10 10v200l-10 10H14L4 228V28Z" fill="none" stroke="#111" stroke-width="2.5" stroke-linejoin="round"/>
  <g fill="#111" font-family="Arial, sans-serif" font-weight="700">
    <text x="28" y="42" font-size="18" letter-spacing="1.8">CYCLE LOOP</text>
    <text x="28" y="62" font-size="18" letter-spacing="1.8">ACTIVE</text>
    <text x="28" y="94" font-size="9" letter-spacing="1.3">[ REINCARNATION LOOP SYSTEM ]</text>
  </g>
  <g fill="#111" font-family="Arial, sans-serif">
    <text x="28" y="130" font-size="9" letter-spacing="1.2">ID: KZ-0711</text>
    <text x="28" y="146" font-size="9" letter-spacing="1.2">STATUS: ACTIVE</text>
    <text x="28" y="162" font-size="9" letter-spacing="1.2">INSTANCE: ∞</text>
    <text x="28" y="178" font-size="9" letter-spacing="1.2">CURRENT: 7/∞</text>
    <text x="28" y="194" font-size="9" letter-spacing="1.2">NEXT INSTANCE: PENDING</text>
  </g>
  <g fill="none" stroke="#111" stroke-width="2" stroke-linecap="round">
    <path d="M154 82a52 52 0 0 1 30 88"/>
    <path d="M188 168a52 52 0 0 1-74 30"/>
    <path d="M110 198a52 52 0 0 1-18-82"/>
    <path d="M94 112a52 52 0 0 1 60-30"/>
  </g>
  <g fill="#111">
    <circle cx="154" cy="82" r="5"/>
    <polygon points="188,168 194,170 188,176"/>
    <polygon points="110,198 104,192 100,200"/>
    <polygon points="94,112 100,108 100,116"/>
    <circle cx="140" cy="140" r="8"/>
    <rect x="134" y="146" width="12" height="18" rx="5"/>
  </g>
  <g fill="#111" font-family="Arial, sans-serif" font-size="18">
    <text x="134" y="150">☸</text>
  </g>
</svg>
